<svg width="1591" height="583" viewBox="0 0 1591 583" fill="none" xmlns="http://www.w3.org/2000/svg">
<path d="M0.352053 -0.121232H410.334V107.683H128.573V242.438H372.766V342.075H128.573V583H0.352053V-0.121232ZM612.689 263.672H753.161C782.562 263.672 804.613 257.138 819.313 244.071C834.014 231.004 841.364 209.77 841.364 180.369C841.364 152.057 834.014 131.639 819.313 119.116C804.613 106.049 782.562 99.5158 753.161 99.5158H612.689V263.672ZM484.468 -0.121232H798.896C825.03 -0.121232 848.442 4.23449 869.132 12.9459C890.366 21.1129 908.333 32.5466 923.034 47.2472C938.279 61.9477 949.713 79.0983 957.335 98.699C965.502 117.755 969.586 138.445 969.586 160.768C969.586 195.069 962.235 224.743 947.535 249.788C933.379 274.833 909.967 293.889 877.299 306.957V308.59C893.088 312.946 906.156 319.752 916.5 329.007C926.845 337.719 935.284 348.336 941.818 360.859C948.352 372.837 952.979 386.176 955.702 400.877C958.969 415.577 961.146 430.278 962.235 444.978C962.78 454.234 963.324 465.123 963.869 477.646C964.413 490.169 965.23 502.964 966.319 516.031C967.952 529.098 970.13 541.621 972.852 553.599C976.119 565.033 980.747 574.833 986.736 583H858.515C851.437 564.488 847.081 542.437 845.448 516.848C843.814 491.258 841.364 466.757 838.098 443.345C833.742 412.855 824.486 390.532 810.33 376.376C796.174 362.22 773.034 355.142 740.911 355.142H612.689V583H484.468V-0.121232ZM1202.08 475.196H1316.42C1334.93 475.196 1352.9 472.202 1370.32 466.212C1387.74 460.223 1403.26 450.423 1416.87 436.811C1430.49 422.655 1441.37 404.416 1449.54 382.093C1457.71 359.77 1461.79 332.546 1461.79 300.423C1461.79 271.022 1458.8 244.615 1452.81 221.204C1447.36 197.247 1438.11 176.83 1425.04 159.951C1411.97 143.073 1394.55 130.278 1372.77 121.567C1351.54 112.311 1325.13 107.683 1293.55 107.683H1202.08V475.196ZM1073.86 -0.121232H1325.4C1362.97 -0.121232 1397.82 5.86788 1429.94 17.8461C1462.61 29.8243 1490.65 47.7916 1514.06 71.748C1538.02 95.7045 1556.53 125.65 1569.6 161.585C1583.21 197.519 1590.01 239.715 1590.01 288.173C1590.01 330.641 1584.57 369.842 1573.68 405.777C1562.79 441.712 1546.18 472.746 1523.86 498.88C1502.08 525.015 1474.59 545.704 1441.37 560.949C1408.71 575.65 1370.05 583 1325.4 583H1073.86V-0.121232Z" fill="#fff"/>
</svg>
